<mxfile host="app.diagrams.net" agent="Mozilla/5.0 (Windows NT 10.0; Win64; x64) AppleWebKit/537.36 (KHTML, like Gecko) Chrome/128.0.0.0 Safari/537.36 Edg/128.0.0.0" version="24.7.12">
  <diagram name="PÃ¡gina-1" id="xD6ZXvheu52Cmjpoaazt">
    <mxGraphModel dx="1090" dy="599" grid="1" gridSize="10" guides="1" tooltips="1" connect="1" arrows="1" fold="1" page="1" pageScale="1" pageWidth="1600" pageHeight="900" math="0" shadow="0">
      <root>
        <mxCell id="0" />
        <mxCell id="1" parent="0" />
        <mxCell id="z6rFFjV-xxpGiVjoj8kn-1" value="vm 1" style="shape=image;verticalLabelPosition=bottom;verticalAlign=top;imageAspect=0;aspect=fixed;image=data:image/svg+xml,PHN2ZyB4bWxucz0iaHR0cDovL3d3dy53My5vcmcvMjAwMC9zdmciIGRhdGEtbmFtZT0iZmx1ZW50X2ljb25zIiB2aWV3Qm94PSIwIDAgMTggMTgiPjxkZWZzPjxsaW5lYXJHcmFkaWVudCBpZD0iYSIgeDE9IjguODgiIHkxPSIxMi4yMSIgeDI9IjguODgiIHkyPSIuMjEiIGdyYWRpZW50VW5pdHM9InVzZXJTcGFjZU9uVXNlIj48c3RvcCBvZmZzZXQ9IjAiIHN0b3AtY29sb3I9IiMwMDc4ZDQiLz48c3RvcCBvZmZzZXQ9Ii44MiIgc3RvcC1jb2xvcj0iIzVlYTBlZiIvPjwvbGluZWFyR3JhZGllbnQ+PGxpbmVhckdyYWRpZW50IGlkPSJiIiB4MT0iOC44OCIgeTE9IjE2Ljg0IiB4Mj0iOC44OCIgeTI9IjEyLjIxIiBncmFkaWVudFVuaXRzPSJ1c2VyU3BhY2VPblVzZSI+PHN0b3Agb2Zmc2V0PSIuMTUiIHN0b3AtY29sb3I9IiNjY2MiLz48c3RvcCBvZmZzZXQ9IjEiIHN0b3AtY29sb3I9IiM3MDcwNzAiLz48L2xpbmVhckdyYWRpZW50PjwvZGVmcz48cmVjdCB4PSItLjEyIiB5PSIuMjEiIHdpZHRoPSIxOCIgaGVpZ2h0PSIxMiIgcng9Ii42IiBmaWxsPSJ1cmwoI2EpIi8+PHBhdGggZmlsbD0iIzUwZTZmZiIgZD0iTTExLjg4IDQuNDZ2My40OWwtMyAxLjc2di0zLjVsMy0xLjc1eiIvPjxwYXRoIGZpbGw9IiNjM2YxZmYiIGQ9Ik0xMS44OCA0LjQ2bC0zIDEuNzYtMy0xLjc2IDMtMS43NSAzIDEuNzV6Ii8+PHBhdGggZmlsbD0iIzljZWJmZiIgZD0iTTguODggNi4yMnYzLjQ5bC0zLTEuNzZWNC40NmwzIDEuNzZ6Ii8+PHBhdGggZmlsbD0iI2MzZjFmZiIgZD0iTTUuODggNy45NWwzLTEuNzR2My41bC0zLTEuNzZ6Ii8+PHBhdGggZmlsbD0iIzljZWJmZiIgZD0iTTExLjg4IDcuOTVsLTMtMS43NHYzLjVsMy0xLjc2eiIvPjxwYXRoIGQ9Ik0xMi40OSAxNS44NGMtMS43OC0uMjgtMS44NS0xLjU2LTEuODUtMy42M0g3LjExYzAgMi4wNy0uMDYgMy4zNS0xLjg0IDMuNjNhMSAxIDAgMDAtLjg5IDFoOWExIDEgMCAwMC0uODktMXoiIGZpbGw9InVybCgjYikiLz48L3N2Zz4=;fontStyle=1;fontColor=#FF0000;" vertex="1" parent="1">
          <mxGeometry x="510" y="480" width="80" height="80" as="geometry" />
        </mxCell>
        <mxCell id="z6rFFjV-xxpGiVjoj8kn-2" value="vm 2" style="shape=image;verticalLabelPosition=bottom;verticalAlign=top;imageAspect=0;aspect=fixed;image=data:image/svg+xml,PHN2ZyB4bWxucz0iaHR0cDovL3d3dy53My5vcmcvMjAwMC9zdmciIGRhdGEtbmFtZT0iZmx1ZW50X2ljb25zIiB2aWV3Qm94PSIwIDAgMTggMTgiPjxkZWZzPjxsaW5lYXJHcmFkaWVudCBpZD0iYSIgeDE9IjguODgiIHkxPSIxMi4yMSIgeDI9IjguODgiIHkyPSIuMjEiIGdyYWRpZW50VW5pdHM9InVzZXJTcGFjZU9uVXNlIj48c3RvcCBvZmZzZXQ9IjAiIHN0b3AtY29sb3I9IiMwMDc4ZDQiLz48c3RvcCBvZmZzZXQ9Ii44MiIgc3RvcC1jb2xvcj0iIzVlYTBlZiIvPjwvbGluZWFyR3JhZGllbnQ+PGxpbmVhckdyYWRpZW50IGlkPSJiIiB4MT0iOC44OCIgeTE9IjE2Ljg0IiB4Mj0iOC44OCIgeTI9IjEyLjIxIiBncmFkaWVudFVuaXRzPSJ1c2VyU3BhY2VPblVzZSI+PHN0b3Agb2Zmc2V0PSIuMTUiIHN0b3AtY29sb3I9IiNjY2MiLz48c3RvcCBvZmZzZXQ9IjEiIHN0b3AtY29sb3I9IiM3MDcwNzAiLz48L2xpbmVhckdyYWRpZW50PjwvZGVmcz48cmVjdCB4PSItLjEyIiB5PSIuMjEiIHdpZHRoPSIxOCIgaGVpZ2h0PSIxMiIgcng9Ii42IiBmaWxsPSJ1cmwoI2EpIi8+PHBhdGggZmlsbD0iIzUwZTZmZiIgZD0iTTExLjg4IDQuNDZ2My40OWwtMyAxLjc2di0zLjVsMy0xLjc1eiIvPjxwYXRoIGZpbGw9IiNjM2YxZmYiIGQ9Ik0xMS44OCA0LjQ2bC0zIDEuNzYtMy0xLjc2IDMtMS43NSAzIDEuNzV6Ii8+PHBhdGggZmlsbD0iIzljZWJmZiIgZD0iTTguODggNi4yMnYzLjQ5bC0zLTEuNzZWNC40NmwzIDEuNzZ6Ii8+PHBhdGggZmlsbD0iI2MzZjFmZiIgZD0iTTUuODggNy45NWwzLTEuNzR2My41bC0zLTEuNzZ6Ii8+PHBhdGggZmlsbD0iIzljZWJmZiIgZD0iTTExLjg4IDcuOTVsLTMtMS43NHYzLjVsMy0xLjc2eiIvPjxwYXRoIGQ9Ik0xMi40OSAxNS44NGMtMS43OC0uMjgtMS44NS0xLjU2LTEuODUtMy42M0g3LjExYzAgMi4wNy0uMDYgMy4zNS0xLjg0IDMuNjNhMSAxIDAgMDAtLjg5IDFoOWExIDEgMCAwMC0uODktMXoiIGZpbGw9InVybCgjYikiLz48L3N2Zz4=;fontStyle=1;fontColor=#FF0000;" vertex="1" parent="1">
          <mxGeometry x="1020" y="480" width="80" height="80" as="geometry" />
        </mxCell>
        <mxCell id="z6rFFjV-xxpGiVjoj8kn-20" style="edgeStyle=orthogonalEdgeStyle;rounded=0;orthogonalLoop=1;jettySize=auto;html=1;" edge="1" parent="1" source="z6rFFjV-xxpGiVjoj8kn-3" target="z6rFFjV-xxpGiVjoj8kn-1">
          <mxGeometry relative="1" as="geometry">
            <mxPoint x="547.5333333333333" y="465" as="targetPoint" />
          </mxGeometry>
        </mxCell>
        <mxCell id="z6rFFjV-xxpGiVjoj8kn-22" style="edgeStyle=orthogonalEdgeStyle;rounded=0;orthogonalLoop=1;jettySize=auto;html=1;entryX=0.5;entryY=0;entryDx=0;entryDy=0;" edge="1" parent="1" source="z6rFFjV-xxpGiVjoj8kn-3" target="z6rFFjV-xxpGiVjoj8kn-2">
          <mxGeometry relative="1" as="geometry">
            <mxPoint x="1000.0666666666666" y="415" as="targetPoint" />
            <Array as="points">
              <mxPoint x="1060" y="325" />
              <mxPoint x="1060" y="470" />
            </Array>
          </mxGeometry>
        </mxCell>
        <mxCell id="z6rFFjV-xxpGiVjoj8kn-3" value="" style="shape=image;verticalLabelPosition=bottom;verticalAlign=top;imageAspect=0;aspect=fixed;image=data:image/svg+xml,PHN2ZyB4bWxucz0iaHR0cDovL3d3dy53My5vcmcvMjAwMC9zdmciIGRhdGEtbmFtZT0iZmx1ZW50X2ljb25zIiB2aWV3Qm94PSIwIDAgMTggMTgiPjxkZWZzPjxsaW5lYXJHcmFkaWVudCBpZD0iYSIgeDE9IjkiIHkxPSIxOS44NSIgeDI9IjkiIHkyPSItMS4wMiIgZ3JhZGllbnRVbml0cz0idXNlclNwYWNlT25Vc2UiPjxzdG9wIG9mZnNldD0iMCIgc3RvcC1jb2xvcj0iIzVlOTYyNCIvPjxzdG9wIG9mZnNldD0iLjAyIiBzdG9wLWNvbG9yPSIjNWY5NzI0Ii8+PHN0b3Agb2Zmc2V0PSIxIiBzdG9wLWNvbG9yPSIjNzZiYzJkIi8+PC9saW5lYXJHcmFkaWVudD48L2RlZnM+PHBhdGggZD0iTS4xOCA4LjU3TDguNTcuMThhLjYuNiAwIDAxLjg2IDBsOC4zOSA4LjM5YS42LjYgMCAwMTAgLjg2bC04LjQgOC40YS42LjYgMCAwMS0uODQgMGwtOC40LTguNGEuNi42IDAgMDEwLS44NnoiIGZpbGw9InVybCgjYSkiLz48cGF0aCBkPSJNMTEuMiA0TDkuMDggMS44OWEuMTIuMTIgMCAwMC0uMTYgMEw2LjggNGEuMS4xIDAgMDAuMDguMThoMS4yNGEuMTEuMTEgMCAwMS4xMS4xMXYyYS4xMS4xMSAwIDAwLjExLjExaDEuMzJhLjExLjExIDAgMDAuMTEtLjExdi0yYS4xMS4xMSAwIDAxLjExLS4xMWgxLjI0QS4xLjEgMCAwMDExLjIgNHpNNCA2LjYxTDEuOSA4Ljc0YS4xMS4xMSAwIDAwMCAuMTVMNCAxMWEuMTEuMTEgMCAwMC4xOS0uMDhWOS42OWEuMTEuMTEgMCAwMS4xMS0uMTFoMmEuMS4xIDAgMDAuMS0uMTFWOC4xNUEuMS4xIDAgMDA2LjMzIDhoLTJhLjEuMSAwIDAxLS4xMS0uMVY2LjY5QS4xMS4xMSAwIDAwNCA2LjYxek0xNC4wOCAxMWwyLjEzLTIuMTJhLjExLjExIDAgMDAwLS4xNWwtMi4xMy0yLjEyYS4xMS4xMSAwIDAwLS4xOC4wOHYxLjI1YS4xLjEgMCAwMS0uMTEuMWgtMmEuMS4xIDAgMDAtLjEuMTF2MS4zMmEuMS4xIDAgMDAuMS4xMWgyYS4xMS4xMSAwIDAxLjExLjExdjEuMjRhLjExLjExIDAgMDAuMTguMDd6IiBmaWxsPSIjYjRlYzM2Ii8+PHBhdGggZD0iTTExLjc5IDlhMi43OSAyLjc5IDAgMTAtMy41NCAyLjY3di45NWExLjcxIDEuNzEgMCAxMDEuNTcgMHYtMUEyLjc3IDIuNzcgMCAwMDExLjc5IDl6IiBmaWxsPSIjZmZmIi8+PGNpcmNsZSBkYXRhLW5hbWU9IkVsbGlwc2UgMzE5Ni0yIiBjeD0iOS4wMSIgY3k9IjguOTkiIHI9IjEuNjIiIGZpbGw9IiM1ZWEwZWYiLz48L3N2Zz4=" vertex="1" parent="1">
          <mxGeometry x="760" y="280" width="90" height="90" as="geometry" />
        </mxCell>
        <mxCell id="z6rFFjV-xxpGiVjoj8kn-4" value="" style="shape=image;verticalLabelPosition=bottom;verticalAlign=top;imageAspect=0;aspect=fixed;image=data:image/svg+xml,PHN2ZyB4bWxucz0iaHR0cDovL3d3dy53My5vcmcvMjAwMC9zdmciIHhtbG5zOnhsaW5rPSJodHRwOi8vd3d3LnczLm9yZy8xOTk5L3hsaW5rIiBkYXRhLW5hbWU9ImZsdWVudF9pY29ucyIgdmlld0JveD0iMCAwIDE4IDE4Ij48ZGVmcz48bGluZWFyR3JhZGllbnQgaWQ9ImEiIHgxPSI5Ljg4IiB5MT0iOC41OSIgeDI9IjExLjUyIiB5Mj0iMTAuMjMiIGdyYWRpZW50VHJhbnNmb3JtPSJyb3RhdGUoLS4wOCAtMjg1LjQ2NCAtMTQ1NC4wOCkiIGdyYWRpZW50VW5pdHM9InVzZXJTcGFjZU9uVXNlIj48c3RvcCBvZmZzZXQ9IjAiIHN0b3AtY29sb3I9IiM4NmQ2MzMiLz48c3RvcCBvZmZzZXQ9Ii4yNCIgc3RvcC1jb2xvcj0iIzgzZDIzMiIvPjxzdG9wIG9mZnNldD0iLjUiIHN0b3AtY29sb3I9IiM3Y2M1MmYiLz48c3RvcCBvZmZzZXQ9Ii43NiIgc3RvcC1jb2xvcj0iIzZmYjAyYSIvPjxzdG9wIG9mZnNldD0iMSIgc3RvcC1jb2xvcj0iIzVlOTYyNCIvPjwvbGluZWFyR3JhZGllbnQ+PGxpbmVhckdyYWRpZW50IGlkPSJiIiB4MT0iNi4xOCIgeTE9IjguNTkiIHgyPSI3LjgxIiB5Mj0iMTAuMjMiIHhsaW5rOmhyZWY9IiNhIi8+PGxpbmVhckdyYWRpZW50IGlkPSJjIiB4MT0iMi40OCIgeTE9IjguNTkiIHgyPSI0LjExIiB5Mj0iMTAuMjMiIHhsaW5rOmhyZWY9IiNhIi8+PC9kZWZzPjxjaXJjbGUgY3g9IjEyLjc0IiBjeT0iOC45OSIgcj0iMS4xNiIgZmlsbD0idXJsKCNhKSIvPjxjaXJjbGUgY3g9IjkuMDQiIGN5PSI5IiByPSIxLjE2IiBmaWxsPSJ1cmwoI2IpIi8+PGNpcmNsZSBjeD0iNS4zNCIgY3k9IjkiIHI9IjEuMTYiIGZpbGw9InVybCgjYykiLz48cGF0aCBkPSJNNi4xODIgMTMuNjM4bC0uNjY0LjY2NWEuMy4zIDAgMDEtLjQyNCAwTC4xOCA5LjQwNGEuNi42IDAgMDEtLjAwMS0uODQ4bC42NjMtLjY2NiA1LjM0IDUuMzI0YS4zLjMgMCAwMTAgLjQyNXoiIGZpbGw9IiM1MGU2ZmYiLz48cGF0aCBkPSJNNS40MTggMy43MDhsLjY2Ni42NjRhLjMuMyAwIDAxMCAuNDI0TC44MzggMTAuMDU3bC0uNjY2LS42NjNhLjYuNiAwIDAxLS4wMDEtLjg0OUw0Ljk5NCAzLjcxYS4zLjMgMCAwMS40MjQgMHoiIGZpbGw9IiMxNDkwZGYiLz48cGF0aCBkPSJNMTcuMTU3IDcuODhsLjY2My42NjZhLjYuNiAwIDAxMCAuODQ4bC00LjkxNSA0LjlhLjMuMyAwIDAxLS40MjQgMGwtLjY2NC0uNjY2YS4zLjMgMCAwMTAtLjQyNGw1LjM0LTUuMzI0eiIgZmlsbD0iIzUwZTZmZiIvPjxwYXRoIGQ9Ik0xNy44MTggOS4zODdsLS42NjUuNjY0LTUuMjQ3LTUuMjYxYS4zLjMgMCAwMTAtLjQyNWwuNjc0LS42N2EuMy4zIDAgMDEuNDI0IDBsNC44MjMgNC44MzZhLjYuNiAwIDAxLS4wMDIuODQ5eiIgZmlsbD0iIzE0OTBkZiIvPjwvc3ZnPg==" vertex="1" parent="1">
          <mxGeometry x="940" y="370" width="60" height="60" as="geometry" />
        </mxCell>
        <mxCell id="z6rFFjV-xxpGiVjoj8kn-24" style="edgeStyle=orthogonalEdgeStyle;rounded=0;orthogonalLoop=1;jettySize=auto;html=1;" edge="1" parent="1" source="z6rFFjV-xxpGiVjoj8kn-6">
          <mxGeometry relative="1" as="geometry">
            <mxPoint x="550" y="580" as="targetPoint" />
            <Array as="points">
              <mxPoint x="550" y="610" />
            </Array>
          </mxGeometry>
        </mxCell>
        <mxCell id="z6rFFjV-xxpGiVjoj8kn-25" style="edgeStyle=orthogonalEdgeStyle;rounded=0;orthogonalLoop=1;jettySize=auto;html=1;" edge="1" parent="1" source="z6rFFjV-xxpGiVjoj8kn-6">
          <mxGeometry relative="1" as="geometry">
            <mxPoint x="1060" y="580" as="targetPoint" />
            <Array as="points">
              <mxPoint x="1060" y="610" />
            </Array>
          </mxGeometry>
        </mxCell>
        <mxCell id="z6rFFjV-xxpGiVjoj8kn-6" value="" style="shape=image;verticalLabelPosition=bottom;verticalAlign=top;imageAspect=0;aspect=fixed;image=data:image/svg+xml,PHN2ZyB4bWxucz0iaHR0cDovL3d3dy53My5vcmcvMjAwMC9zdmciIHZpZXdCb3g9IjAgMCAxOCAxOCI+PGRlZnM+PGxpbmVhckdyYWRpZW50IGlkPSJiIiB4MT0iMy44NDQiIHkxPSI5LjU2MSIgeDI9IjMuODE3IiB5Mj0iNi4xNjUiIGdyYWRpZW50VW5pdHM9InVzZXJTcGFjZU9uVXNlIj48c3RvcCBvZmZzZXQ9IjAiIHN0b3AtY29sb3I9IiNjY2MiLz48c3RvcCBvZmZzZXQ9Ii4xMjMiIHN0b3AtY29sb3I9IiNkN2Q3ZDciLz48c3RvcCBvZmZzZXQ9IjEiIHN0b3AtY29sb3I9IiNmY2ZjZmMiLz48L2xpbmVhckdyYWRpZW50PjxsaW5lYXJHcmFkaWVudCBpZD0iYyIgeDE9IjguNzYzIiB5MT0iMTIuOTU4IiB4Mj0iOC43NjMiIHkyPSI5LjkxMyIgZ3JhZGllbnRVbml0cz0idXNlclNwYWNlT25Vc2UiPjxzdG9wIG9mZnNldD0iMCIgc3RvcC1jb2xvcj0iI2NjYyIvPjxzdG9wIG9mZnNldD0iLjEyMyIgc3RvcC1jb2xvcj0iI2Q3ZDdkNyIvPjxzdG9wIG9mZnNldD0iMSIgc3RvcC1jb2xvcj0iI2ZjZmNmYyIvPjwvbGluZWFyR3JhZGllbnQ+PGxpbmVhckdyYWRpZW50IGlkPSJkIiB4MT0iLTEwNS4yOTIiIHkxPSIzNzMuMDExIiB4Mj0iLTEwNS4yOTIiIHkyPSIzNjQuMTY1IiBncmFkaWVudFRyYW5zZm9ybT0icm90YXRlKC0xOC4zIC0xMTU0LjUyMiAtMTc3LjM5OCkiIGdyYWRpZW50VW5pdHM9InVzZXJTcGFjZU9uVXNlIj48c3RvcCBvZmZzZXQ9IjAiIHN0b3AtY29sb3I9IiMzMmJlZGQiLz48c3RvcCBvZmZzZXQ9Ii41NzYiIHN0b3AtY29sb3I9IiMzMmNlZWYiLz48c3RvcCBvZmZzZXQ9IjEiIHN0b3AtY29sb3I9IiMzMmQ0ZjUiLz48L2xpbmVhckdyYWRpZW50PjxyYWRpYWxHcmFkaWVudCBpZD0iYSIgY3g9IjQ2NDkuNTE1IiBjeT0iMzU3OC4zNTciIHI9IjQ4LjU5NyIgZ3JhZGllbnRUcmFuc2Zvcm09Im1hdHJpeCguMTUgMCAwIC4xNSAtNjg5LjY0MSAtNTI5LjMyNikiIGdyYWRpZW50VW5pdHM9InVzZXJTcGFjZU9uVXNlIj48c3RvcCBvZmZzZXQ9Ii4xODMiIHN0b3AtY29sb3I9IiM1ZWEwZWYiLz48c3RvcCBvZmZzZXQ9IjEiIHN0b3AtY29sb3I9IiMwMDc4ZDQiLz48L3JhZGlhbEdyYWRpZW50PjwvZGVmcz48cGF0aCBkYXRhLW5hbWU9IlBhdGggMTIzNyIgZD0iTTEyLjI1NyAxMy4xOUE3LjI4OSA3LjI4OSAwIDExMy4zMjMgMS42N2wuMDc3LS4wNTZhNy4yODkgNy4yODkgMCAwMTguODU3IDExLjU3NiIgZmlsbD0idXJsKCNhKSIvPjxwYXRoIGQ9Ik01LjgwOCA1LjkxM2ExMS4xNjIgMTEuMTYyIDAgMDE3LjY0Mi0zLjA3MUE3LjE4NSA3LjE4NSAwIDAwMTIuMTc2IDEuNmExMi4zODYgMTIuMzg2IDAgMDAtNC4wMjYuOTUgMTAuNjI4IDEwLjYyOCAwIDAwLTMuNSAyLjQxNCAyLjM0OCAyLjM0OCAwIDAxMS4xNTguOTQ5ek0yLjIgOC44NDFhMTYuMjM2IDE2LjIzNiAwIDAwLS43MTcgMi4yNSA3LjcgNy43IDAgMDAuNTM0Ljc5MSA2Ljc4MiA2Ljc4MiAwIDAwLjQ3NS41NTUgMTUuMyAxNS4zIDAgMDEuOTI4LTIuOTc1IDIuMzMyIDIuMzMyIDAgMDEtMS4yMi0uNjIxeiIgZmlsbD0iI2ZmZiIgb3BhY2l0eT0iLjYiLz48cGF0aCBkPSJNMy4wMzkgNC45NTJhMTAuMjM5IDEwLjIzOSAwIDAxLS41OTEtMi41MjYgNy4yNzcgNy4yNzcgMCAwMC0uOTQ4IDEuMjVBMTEuMzYxIDExLjM2MSAwIDAwMS45OTEgNS43YTIuMzMgMi4zMyAwIDAxMS4wNDgtLjc0OHoiIGZpbGw9IiNmMmYyZjIiIG9wYWNpdHk9Ii41NSIvPjxjaXJjbGUgY3g9IjMuODI1IiBjeT0iNy4xNTciIHI9IjIuMzQzIiBmaWxsPSJ1cmwoI2IpIi8+PGcgZmlsbD0iI2YyZjJmMiI+PHBhdGggZD0iTTcuMjQxIDExLjQzNWExLjUxNSAxLjUxNSAwIDAxLjQ1OS0xLjA4OCAxMC4zMDcgMTAuMzA3IDAgMDEtMi4xNjUtMS41OTIgMi4zMzYgMi4zMzYgMCAwMS0xLjI4LjcgMTAuMjEzIDEwLjIxMyAwIDAwMS4yNDUgMS4xIDEwLjYgMTAuNiAwIDAwMS43NTUgMS4wNyAxLjQgMS40IDAgMDEtLjAxNC0uMTl6TTEyLjY0MiAxMS42MTdhMTAuMjg4IDEwLjI4OCAwIDAxLTIuMzYyLS4yNzVjMCAuMDMxLjAwNS4wNjIuMDA1LjA5M2ExLjUxNSAxLjUxNSAwIDAxLS40MzMgMS4wNjUgMTEuODc5IDExLjg3OSAwIDAwMi45MjUuMjA5IDcuMTg1IDcuMTg1IDAgMDAuOTg3LTEuMTUyIDEwLjUxNyAxMC41MTcgMCAwMS0xLjEyMi4wNnoiIG9wYWNpdHk9Ii41NSIvPjwvZz48Y2lyY2xlIGN4PSI4Ljc2MyIgY3k9IjExLjQzNSIgcj0iMS41MjIiIGZpbGw9InVybCgjYykiLz48cGF0aCBkPSJNMTAuNjM1IDcuMzY4YTEuNTg4IDEuNTg4IDAgMDEuNTI1LS44NDggMjEuNjYzIDIxLjY2MyAwIDAxLTMuODI3LTMuNTU4QTE0LjU3NiAxNC41NzYgMCAwMTUuNjMyLjQ1NyA3LjIyNyA3LjIyNyAwIDAwNC43LjgxNmExNS4yMTEgMTUuMjExIDAgMDAxLjgyOSAyLjczMiAyMi42MSAyMi42MSAwIDAwNC4xMDYgMy44MnoiIGZpbGw9IiNmMmYyZjIiIG9wYWNpdHk9Ii43Ii8+PGNpcmNsZSBjeD0iMTIuMjMyIiBjeT0iNy42NiIgcj0iMS42MTciIGZpbGw9IiNmMmYyZjIiLz48cGF0aCBkPSJNMTQuOTQ4IDguNzVjLS4xLS4wNS0uMTgtLjA5NC0uMjc1LS4xNDVsLS4wMjYtLjAxNGMtLjA4Ni0uMDQ1LS4xNy0uMDkxLS4yNTQtLjEzN2wtLjA0Ny0uMDI2LS4yMjktLjEyOC0uMDU2LS4wMzJjLS4wOTEtLjA1MS0uMTgxLS4xLS4yNy0uMTU0YTEuNTM2IDEuNTM2IDAgMDEtLjU0Ni43OTNjLjEwNS4wNjIuMjEyLjEyMy4zMjEuMTg0bC4wNzIuMDQxLjMuMTY1LjAyOS4wMTZjLjI0MS4xMzEuNDg3LjI2Mi43MzkuMzkxYTcuMTA3IDcuMTA3IDAgMDAuMjQzLS45NTV6IiBmaWxsPSIjZjJmMmYyIiBvcGFjaXR5PSIuNTUiLz48Y2lyY2xlIGN4PSIzLjgyNSIgY3k9IjcuMTU3IiByPSIyLjM0MyIgZmlsbD0idXJsKCNiKSIvPjxjaXJjbGUgY3g9IjguNzYzIiBjeT0iMTEuNDM1IiByPSIxLjUyMiIgZmlsbD0iI2YyZjJmMiIvPjxwYXRoIGQ9Ik0xNy41IDEwLjU3MWwtLjMxNy0uOTU4aC0xLjI4N2wtLjQ4NS0uNTY2LjE1NC0xLjI4MS0uODk1LS40NS0uMTEyLjExMi0uOC44LS43NDQtLjA1Mi0uOC0xLjAyLS45NTguMzE3LS4wMDYuMTUxVjguNzZsLS41NjYuNDg1LTEuMjYtLjE1Ny0uNDQ5Ljg5NC4xMTIuMTEyLjguOC0uMDUxLjc0My0xLjAzNy44MS4zMTcuOTU3LjE1MS4wMDZoMS4xMzZsLjQ4NS41NjYtLjE1NCAxLjI4MS44OTUuNDQ5LjExMi0uMTEyLjgtLjguNzQ0LjA1Mi44IDEuMDIuOTU4LS4zMTcuMDA2LS4xNTF2LTEuMTM1bC41NjYtLjQ4NiAxLjI4MS4xNTQuNDUtLjg5NC0uMTEyLS4xMTMtLjgtLjguMDUyLS43NDR6bS0zLjczOSAyLjc3OWExLjk0MSAxLjk0MSAwIDExMS4yMzMtMi40NSAxLjk0IDEuOTQgMCAwMS0xLjIzMyAyLjQ1eiIgZmlsbD0idXJsKCNkKSIvPjxwYXRoIGQ9Ik03LjYxMyAxNC43NTN2LS43OTRsLS4xMTMtLjA0MS0uODUtLjI3OS0uMjIxLS41MzkuNDMyLS45MTktLjU2MS0uNTYyLS4xMTIuMDU2LS43OTQuNC0uNTQzLS4yMjMtLjM0NC0uOTUyaC0uNzk0bC0uMDQyLjExMS0uMjc4Ljg1LS41NDQuMjIzLS45MDUtLjQzMi0uNTU3LjU1Ny4wNTUuMTEyLjQuNzk0LS4yMjIuNTQzTC42NDkgMTR2LjhsLjExMS4wNDIuODUuMjc5LjIyMy41NDMtLjQzMi45MTkuNTU3LjU1Ny4xMTEtLjA1Ni43OTQtLjQuNTQzLjIyMi4zNDkuOTYyaC43OTRsLjA0MS0uMTEyLjI3OS0uODUuNTQzLS4yMjIuOTIuNDMxLjU1Ny0uNTU3LS4wNTYtLjExMS0uNC0uNzk0LjIyMy0uNTQzem0tMy40ODIgMS4xNTNhMS41MjkgMS41MjkgMCAxMTEuNTI4LTEuNTI5IDEuNTI4IDEuNTI4IDAgMDEtMS41MjggMS41Mjl6IiBmaWxsPSIjNTBlNmZmIi8+PGNpcmNsZSBjeD0iMTMuMTUxIiBjeT0iMTEuNTA3IiByPSIxLjk0MSIgZmlsbD0iI2ZmZiIvPjxjaXJjbGUgY3g9IjQuMTMxIiBjeT0iMTQuMzc3IiByPSIxLjUyOCIgZmlsbD0iI2ZmZiIvPjwvc3ZnPg==" vertex="1" parent="1">
          <mxGeometry x="775" y="580" width="60" height="60" as="geometry" />
        </mxCell>
        <mxCell id="z6rFFjV-xxpGiVjoj8kn-33" style="edgeStyle=orthogonalEdgeStyle;rounded=0;orthogonalLoop=1;jettySize=auto;html=1;exitX=1;exitY=0.5;exitDx=0;exitDy=0;" edge="1" parent="1" source="z6rFFjV-xxpGiVjoj8kn-27">
          <mxGeometry relative="1" as="geometry">
            <mxPoint x="510" y="510" as="targetPoint" />
          </mxGeometry>
        </mxCell>
        <mxCell id="z6rFFjV-xxpGiVjoj8kn-27" value="alta disponibilidade&lt;div&gt;99,95% de SLA&lt;/div&gt;" style="rounded=0;whiteSpace=wrap;html=1;" vertex="1" parent="1">
          <mxGeometry x="360" y="490" width="130" height="40" as="geometry" />
        </mxCell>
        <mxCell id="z6rFFjV-xxpGiVjoj8kn-31" style="edgeStyle=orthogonalEdgeStyle;rounded=0;orthogonalLoop=1;jettySize=auto;html=1;exitX=0.5;exitY=1;exitDx=0;exitDy=0;entryX=0.5;entryY=0;entryDx=0;entryDy=0;" edge="1" parent="1" source="z6rFFjV-xxpGiVjoj8kn-30" target="z6rFFjV-xxpGiVjoj8kn-3">
          <mxGeometry relative="1" as="geometry" />
        </mxCell>
        <mxCell id="z6rFFjV-xxpGiVjoj8kn-30" value="distribuir o trÃ¡fego entre as VMs" style="ellipse;whiteSpace=wrap;html=1;fontColor=#7F00FF;" vertex="1" parent="1">
          <mxGeometry x="755" y="180" width="100" height="70" as="geometry" />
        </mxCell>
        <mxCell id="z6rFFjV-xxpGiVjoj8kn-39" style="edgeStyle=orthogonalEdgeStyle;rounded=0;orthogonalLoop=1;jettySize=auto;html=1;exitX=0;exitY=0.5;exitDx=0;exitDy=0;entryX=1.033;entryY=0.376;entryDx=0;entryDy=0;entryPerimeter=0;" edge="1" parent="1" source="z6rFFjV-xxpGiVjoj8kn-34" target="z6rFFjV-xxpGiVjoj8kn-2">
          <mxGeometry relative="1" as="geometry">
            <mxPoint x="1110" y="510" as="targetPoint" />
            <Array as="points" />
          </mxGeometry>
        </mxCell>
        <mxCell id="z6rFFjV-xxpGiVjoj8kn-34" value="alta disponibilidade&lt;div&gt;99,95% de SLA&lt;/div&gt;" style="rounded=0;whiteSpace=wrap;html=1;" vertex="1" parent="1">
          <mxGeometry x="1120" y="490" width="130" height="40" as="geometry" />
        </mxCell>
        <mxCell id="z6rFFjV-xxpGiVjoj8kn-40" value="" style="rounded=1;whiteSpace=wrap;html=1;" vertex="1" parent="1">
          <mxGeometry x="745" y="650" width="120" height="60" as="geometry" />
        </mxCell>
        <mxCell id="z6rFFjV-xxpGiVjoj8kn-41" value="" style="verticalLabelPosition=bottom;verticalAlign=top;html=1;shape=mxgraph.basic.x;noLabel=1;labelBackgroundColor=#FF0000;fillColor=#f8cecc;strokeColor=#b85450;" vertex="1" parent="1">
          <mxGeometry x="630" y="500" width="20" height="20" as="geometry" />
        </mxCell>
        <mxCell id="z6rFFjV-xxpGiVjoj8kn-43" value="" style="verticalLabelPosition=bottom;verticalAlign=top;html=1;shape=mxgraph.basic.tick;fillColor=#d5e8d4;strokeColor=#82b366;" vertex="1" parent="1">
          <mxGeometry x="950" y="495" width="20" height="25" as="geometry" />
        </mxCell>
        <mxCell id="z6rFFjV-xxpGiVjoj8kn-45" value="" style="endArrow=none;dashed=1;html=1;rounded=0;" edge="1" parent="1" source="z6rFFjV-xxpGiVjoj8kn-41">
          <mxGeometry width="50" height="50" relative="1" as="geometry">
            <mxPoint x="815" y="540" as="sourcePoint" />
            <mxPoint x="950" y="510" as="targetPoint" />
          </mxGeometry>
        </mxCell>
      </root>
    </mxGraphModel>
  </diagram>
</mxfile>
